<?xml version="1.0" encoding="utf-8"?>
<!-- Generator: Adobe Illustrator 27.5.0, SVG Export Plug-In . SVG Version: 6.00 Build 0)  -->
<svg version="1.1" xmlns="http://www.w3.org/2000/svg" xmlns:xlink="http://www.w3.org/1999/xlink" x="0px" y="0px"
	 viewBox="0 0 3710 3710" style="enable-background:new 0 0 3710 3710;" xml:space="preserve">
<g id="Background">
	<g>
		<g>
			<rect style="fill:#FFFFFF;" width="3710" height="3710"/>
		</g>
	</g>
</g>
<g id="Illustration">
	<g>
		<linearGradient id="SVGID_1_" gradientUnits="userSpaceOnUse" x1="3513.6499" y1="3696.2622" x2="1536.0961" y2="1591.1248">
			<stop  offset="0" style="stop-color:#DAE3FE"/>
			<stop  offset="1" style="stop-color:#E9EFFD"/>
		</linearGradient>
		<path style="fill:url(#SVGID_1_);" d="M2919.891,2851.69c-73.003,75.25-138.324,119.483-188.336,152.877
			c-487.755,325.679-1045.313,231.81-1217.696,199.726c-278.119-51.764-512.889-88.281-714.599-270.518
			C340.914,2519.678,363.207,1655.84,713.44,1120.73c41.527-63.449,391.229-581.816,949.994-654.858
			c13.667-1.786,23.864-2.804,32.795-3.75c86.439-9.152,622.088-57.454,1058.857,308.47
			c62.521,52.38,163.136,146.861,256.438,290.959C3352.68,1588.44,3353.76,2404.474,2919.891,2851.69z"/>
		<g>
			<g>
				<path style="fill:#91B3FA;" d="M627.48,887.473c4.053-13.535,23.6-12.639,26.336,1.223
					c26.454,134.009,106.827,483.232,257.573,677.066c245.449,315.607,386.557,807.809,194.961,1041.885
					C1106.35,2607.646,185.922,2362.211,627.48,887.473z"/>
				<path style="fill:#BDD0FB;" d="M638.613,1076.591c-0.005,4.312,0.333,7.87,0.529,11.712l0.823,11.316l1.896,22.589
					c1.367,15.046,2.963,30.065,4.561,45.086c3.303,30.026,6.979,60.009,10.93,89.959c8.013,59.884,17.646,119.543,28.176,179.045
					c10.446,59.522,22.557,118.751,35.917,177.699c13.411,58.933,27.662,117.701,43.839,175.968
					c32.119,116.575,70.609,231.514,117.065,343.273c23.812,55.622,49.089,110.652,77.506,164.098
					c28.79,53.222,59.858,105.246,94.579,154.772c0.755,1.077,2.24,1.338,3.317,0.583c1.05-0.736,1.325-2.167,0.638-3.236
					l-0.018-0.027c-32.653-50.652-62.525-102.967-89.768-156.635c-27.396-53.6-51.649-108.745-74.432-164.437
					c-22.758-55.722-43.268-112.35-62.487-169.401c-19.2-57.073-36.028-114.912-52.527-172.829
					c-32.512-116.008-58.813-233.706-81.861-352.009c-11.399-59.183-21.605-118.603-30.755-178.189
					c-4.623-29.786-8.972-59.617-12.95-89.499l-5.615-44.861l-2.577-22.449l-1.163-11.227c-0.322-3.683-0.729-7.638-0.878-10.872
					l-0.024-0.534c-0.06-1.303-1.164-2.31-2.466-2.251C639.602,1074.294,638.617,1075.34,638.613,1076.591z"/>
			</g>
			<g>
				<path style="fill:#BDD0FB;" d="M1105.269,625.498c7.409-11.307,25.09-5.152,23.818,8.306
					c-12.299,130.11-33.861,472.29,51.502,691.17c138.991,356.386,134.12,846.255-105.439,1008.647
					C1075.15,2333.621,298.026,1857.448,1105.269,625.498z"/>
				
					<linearGradient id="SVGID_00000118375030559856143310000006140762066303486344_" gradientUnits="userSpaceOnUse" x1="984.6669" y1="1489.3645" x2="1074.4528" y2="1489.3645">
					<stop  offset="0" style="stop-color:#DAE3FE"/>
					<stop  offset="1" style="stop-color:#E9EFFD"/>
				</linearGradient>
				<path style="fill:url(#SVGID_00000118375030559856143310000006140762066303486344_);" d="M1063.847,801.951
					c-1.185,3.961-1.845,7.312-2.715,10.89l-2.334,10.602l-4.43,21.232c-2.855,14.171-5.491,28.38-8.126,42.589
					c-5.168,28.436-9.983,56.935-14.536,85.478c-8.999,57.103-16.444,114.441-23.03,171.88
					c-6.668,57.434-11.723,115.056-15.553,172.76c-3.781,57.705-6.746,115.487-7.81,173.337
					c-2.35,115.671,1.602,231.582,13.724,346.748c6.671,57.506,14.849,114.869,26.337,171.635
					c11.897,56.662,26.207,112.846,44.557,167.732c0.407,1.215,1.721,1.871,2.936,1.465c1.185-0.396,1.838-1.655,1.494-2.844
					l-0.009-0.031c-16.106-55.363-29.218-111.486-39.546-168.135c-10.491-56.627-17.681-113.811-23.373-171.097
					c-5.662-57.306-9.022-114.829-11.08-172.388c-2.036-57.574-1.683-115.204-1.017-172.816
					c1.824-115.25,9.817-230.357,20.936-345.133c5.684-57.382,12.528-114.658,20.382-171.797c3.88-28.576,8.024-57.12,12.521-85.609
					l7.079-42.672l3.755-21.291l1.993-10.613c0.709-3.464,1.414-7.205,2.156-10.203l0.126-0.506
					c0.305-1.233-0.446-2.481-1.679-2.786C1065.408,800.081,1064.198,800.785,1063.847,801.951z"/>
			</g>
		</g>
		<g>
			
				<linearGradient id="SVGID_00000057139873234523402500000002843167748634299270_" gradientUnits="userSpaceOnUse" x1="1994.0953" y1="2483.8743" x2="2035.2933" y2="3472.6445">
				<stop  offset="0" style="stop-color:#09005D"/>
				<stop  offset="1" style="stop-color:#1A0F91"/>
			</linearGradient>
			<polygon style="fill:url(#SVGID_00000057139873234523402500000002843167748634299270_);" points="1762.293,2613.344 
				1709.739,2976.021 2319.464,2976.021 2240.046,2613.344 			"/>
			
				<linearGradient id="SVGID_00000040558221328503131240000010455393711468680320_" gradientUnits="userSpaceOnUse" x1="1917.9327" y1="688.8156" x2="1965.9969" y2="2741.887">
				<stop  offset="0" style="stop-color:#09005D"/>
				<stop  offset="1" style="stop-color:#1A0F91"/>
			</linearGradient>
			<path style="fill:url(#SVGID_00000040558221328503131240000010455393711468680320_);" d="M738.063,1452.08v1079.475
				c0,88.801,70.764,161.419,159.536,163.709c394.277,10.167,1773.267,34.819,2148.593,29.287
				c64.509-0.951,116.767-52.573,118.628-117.062c7.237-250.777,18.991-853.811-24.507-1133.776
				c-9.16-58.958-58.926-103.045-118.56-104.952c-330.354-10.568-1792.175-44.126-2167.325-35.701
				C789.726,1334.513,738.063,1387.364,738.063,1452.08z"/>
			<path style="fill:#7D97F4;" d="M805.797,1446.826v1025.576c0,51.847,41.619,94.093,93.46,94.868l2092.938,25.858
				c51.397,0.768,93.527-40.582,93.718-91.985l3.501-1016.413c0.137-36.754-29.145-66.869-65.887-67.763l-2142.78-43.29
				C839.651,1372.678,805.797,1405.719,805.797,1446.826z"/>
			<path style="fill:#91B3FA;" d="M3101.67,2635.159c-0.017,0-0.034,0-0.051,0l-2295.872-39.118
				c-1.603-0.028-2.879-1.349-2.852-2.95c0.027-1.607,1.366-2.829,2.952-2.854l2295.872,39.119c1.603,0.028,2.879,1.349,2.853,2.95
				C3104.544,2633.893,3103.249,2635.159,3101.67,2635.159z"/>
			
				<linearGradient id="SVGID_00000168094699434862072650000003179545971621936784_" gradientUnits="userSpaceOnUse" x1="1941.0233" y1="2432.0671" x2="2009.6887" y2="3091.2505">
				<stop  offset="0" style="stop-color:#09005D"/>
				<stop  offset="1" style="stop-color:#1A0F91"/>
			</linearGradient>
			<path style="fill:url(#SVGID_00000168094699434862072650000003179545971621936784_);" d="M2450.798,3072.455h-892.374
				c-24.243,0-42.449-17.259-37.761-35.797l11.45-45.285c3.444-13.619,18.426-23.617,36.222-24.173l860.281-26.844
				c18.592-0.58,35.053,9.289,39.104,23.442l20.642,72.129C2493.726,3054.667,2475.433,3072.455,2450.798,3072.455z"/>
			<path style="fill:#91B3FA;" d="M2038.805,2979.461c-1.583,0-2.877-1.272-2.901-2.86c-0.023-1.604,1.257-2.922,2.86-2.945
				l36.864-0.538c1.54,0.009,2.921,1.258,2.945,2.859c0.023,1.604-1.257,2.922-2.86,2.945l-36.864,0.539H2038.805z"/>
			<path style="fill:#91B3FA;" d="M1553.701,3047.481c-0.153,0-0.307-0.011-0.462-0.037c-1.583-0.252-2.661-1.74-2.407-3.321
				l5.26-32.938c2.824-17.696,17.88-30.73,35.8-30.993l391-5.719h0.044c1.583,0,2.877,1.272,2.901,2.859
				c0.023,1.604-1.257,2.922-2.86,2.945l-391,5.719c-15.093,0.221-27.775,11.197-30.155,26.102l-5.26,32.937
				C1556.334,3046.464,1555.101,3047.481,1553.701,3047.481z"/>
			
				<linearGradient id="SVGID_00000039825474422001699740000002630945536310073008_" gradientUnits="userSpaceOnUse" x1="3331.8801" y1="97.7024" x2="2803.1611" y2="777.4837">
				<stop  offset="0" style="stop-color:#4F52FF"/>
				<stop  offset="1" style="stop-color:#4042E2"/>
			</linearGradient>
			<path style="fill:url(#SVGID_00000039825474422001699740000002630945536310073008_);" d="M2698.561,2589.5l-1403.365-19.527
				v-1511.29c0-32.054,25.985-58.04,58.04-58.04h1292.336c29.996,0,54.312,24.316,54.312,54.312L2698.561,2589.5z"/>
			<path style="fill:#91B3FA;" d="M2653.538,2589.116l-1316.834-18.552V1098.729c0-31.77,25.437-57.525,56.815-57.525h1206.854
				c29.363,0,53.166,24.101,53.166,53.831V2589.116z"/>
			<g>
				
					<linearGradient id="SVGID_00000161614084205046088780000007817510829569130890_" gradientUnits="userSpaceOnUse" x1="1403.8361" y1="1237.8284" x2="1716.817" y2="1237.8284">
					<stop  offset="0" style="stop-color:#DAE3FE"/>
					<stop  offset="1" style="stop-color:#E9EFFD"/>
				</linearGradient>
				<path style="opacity:0.79;fill:url(#SVGID_00000161614084205046088780000007817510829569130890_);" d="M1709.495,1357.847
					h-298.336c-4.044,0-7.322-3.278-7.322-7.322v-225.392c0-4.044,3.278-7.322,7.322-7.322h298.336c4.044,0,7.322,3.278,7.322,7.322
					v225.392C1716.817,1354.568,1713.539,1357.847,1709.495,1357.847z"/>
				
					<linearGradient id="SVGID_00000046329597765256080340000006649020522047146927_" gradientUnits="userSpaceOnUse" x1="1802.2432" y1="1164.4282" x2="2323.1184" y2="1164.4282">
					<stop  offset="0" style="stop-color:#DAE3FE"/>
					<stop  offset="1" style="stop-color:#E9EFFD"/>
				</linearGradient>
				<path style="opacity:0.79;fill:url(#SVGID_00000046329597765256080340000006649020522047146927_);" d="M2316.966,1211.046
					h-508.57c-3.398,0-6.152-2.755-6.152-6.152v-80.932c0-3.398,2.755-6.152,6.152-6.152h508.57c3.398,0,6.152,2.755,6.152,6.152
					v80.932C2323.118,1208.292,2320.364,1211.046,2316.966,1211.046z"/>
				
					<linearGradient id="SVGID_00000054947303544600638410000007551705224836545692_" gradientUnits="userSpaceOnUse" x1="1802.2432" y1="1290.0679" x2="2114.5779" y2="1290.0679">
					<stop  offset="0" style="stop-color:#DAE3FE"/>
					<stop  offset="1" style="stop-color:#E9EFFD"/>
				</linearGradient>
				<path style="opacity:0.79;fill:url(#SVGID_00000054947303544600638410000007551705224836545692_);" d="M2109.28,1336.686
					h-301.739c-2.926,0-5.298-2.372-5.298-5.298v-82.641c0-2.926,2.372-5.298,5.298-5.298h301.739c2.926,0,5.298,2.372,5.298,5.298
					v82.641C2114.578,1334.314,2112.206,1336.686,2109.28,1336.686z"/>
				
					<linearGradient id="SVGID_00000181768454632624419630000013157341252490324158_" gradientUnits="userSpaceOnUse" x1="1472.873" y1="1719.1555" x2="2545.8469" y2="1719.1555">
					<stop  offset="0" style="stop-color:#DAE3FE"/>
					<stop  offset="1" style="stop-color:#E9EFFD"/>
				</linearGradient>
				<path style="opacity:0.79;fill:url(#SVGID_00000181768454632624419630000013157341252490324158_);" d="M2537.068,1978.653
					H1481.652c-4.849,0-8.779-3.93-8.779-8.779v-501.438c0-4.848,3.93-8.779,8.779-8.779h1055.416c4.848,0,8.779,3.93,8.779,8.779
					v501.438C2545.847,1974.723,2541.917,1978.653,2537.068,1978.653z"/>
				
					<linearGradient id="SVGID_00000043430576115770415000000011490894003684833412_" gradientUnits="userSpaceOnUse" x1="1403.188" y1="2129.4834" x2="2596.0903" y2="2129.4834">
					<stop  offset="0" style="stop-color:#DAE3FE"/>
					<stop  offset="1" style="stop-color:#E9EFFD"/>
				</linearGradient>
				<path style="opacity:0.79;fill:url(#SVGID_00000043430576115770415000000011490894003684833412_);" d="M2591.72,2186.931
					H1407.558c-2.414,0-4.37-1.957-4.37-4.37v-106.155c0-2.414,1.957-4.37,4.37-4.37H2591.72c2.414,0,4.37,1.957,4.37,4.37v106.155
					C2596.09,2184.975,2594.134,2186.931,2591.72,2186.931z"/>
				
					<linearGradient id="SVGID_00000045593702810903884560000008038968726801017767_" gradientUnits="userSpaceOnUse" x1="1400.8516" y1="2319.8823" x2="2593.7539" y2="2319.8823">
					<stop  offset="0" style="stop-color:#DAE3FE"/>
					<stop  offset="1" style="stop-color:#E9EFFD"/>
				</linearGradient>
				<path style="opacity:0.79;fill:url(#SVGID_00000045593702810903884560000008038968726801017767_);" d="M2586.778,2377.33
					h-1178.95c-3.853,0-6.976-3.123-6.976-6.976V2269.41c0-3.853,3.123-6.976,6.976-6.976h1178.95c3.853,0,6.976,3.123,6.976,6.976
					v100.944C2593.754,2374.207,2590.631,2377.33,2586.778,2377.33z"/>
				
					<linearGradient id="SVGID_00000165197316404946101740000007032744119733969561_" gradientUnits="userSpaceOnUse" x1="1403.5303" y1="2497.5022" x2="2596.4326" y2="2497.5022">
					<stop  offset="0" style="stop-color:#DAE3FE"/>
					<stop  offset="1" style="stop-color:#E9EFFD"/>
				</linearGradient>
				<path style="opacity:0.79;fill:url(#SVGID_00000165197316404946101740000007032744119733969561_);" d="M2588.455,2554.95
					H1411.508c-4.406,0-7.977-3.572-7.977-7.977v-98.941c0-4.406,3.572-7.977,7.977-7.977h1176.947c4.406,0,7.978,3.572,7.978,7.977
					v98.941C2596.433,2551.378,2592.861,2554.95,2588.455,2554.95z"/>
			</g>
		</g>
		<g>
			<g>
				<path style="fill:#BDD0FB;" d="M3050.033,792.174c-21.962-134.359-139.573-235.31-262.783-273.19
					c-119.589-36.766-261.369-43.042-380.689-2.252c-88.048,30.101-180.859,86.663-213.389,178.522
					c-55.238,155.981,45.409,320.794,183.067,390.764c45.118,22.932,92.415,34.654,142.071,42.924
					c57.325,9.548,120.129,52.325,82.106,118.788c-20.413,35.68-60.814,51.841-90.468,59.092c-9.321,2.28-9.371,15.65-0.038,17.877
					c128.151,30.574,201.823-91.75,232.641-161.304c12.878-29.065,35.887-52.429,64.786-65.674
					C2910.952,1050.235,3076.328,953.054,3050.033,792.174z"/>
				
					<linearGradient id="SVGID_00000023993901884227259710000013253167623235680423_" gradientUnits="userSpaceOnUse" x1="2573.2598" y1="598.5713" x2="2955.1218" y2="598.5713">
					<stop  offset="0" style="stop-color:#DAE3FE"/>
					<stop  offset="1" style="stop-color:#E9EFFD"/>
				</linearGradient>
				<path style="fill:url(#SVGID_00000023993901884227259710000013253167623235680423_);" d="M2949.165,674.216
					c-2.529,0.462-5.225-0.435-6.957-2.572c-94.88-117.03-248.931-137.434-361.456-133.942c-4.011,0.126-7.365-3.028-7.489-7.039
					c-0.125-4.014,3.017-7.376,7.039-7.489c115.812-3.594,274.566,17.658,373.197,139.317c2.528,3.117,2.05,7.696-1.069,10.224
					C2951.449,673.507,2950.324,674.005,2949.165,674.216z"/>
				
					<linearGradient id="SVGID_00000040575141160526821600000010732777203737894844_" gradientUnits="userSpaceOnUse" x1="2990.8865" y1="778.3394" x2="3019.5166" y2="778.3394">
					<stop  offset="0" style="stop-color:#DAE3FE"/>
					<stop  offset="1" style="stop-color:#E9EFFD"/>
				</linearGradient>
				<path style="fill:url(#SVGID_00000040575141160526821600000010732777203737894844_);" d="M3013.557,810.165
					c-0.107,0.019-0.215,0.036-0.326,0.052c-3.974,0.545-7.638-2.239-8.185-6.211c-0.027-0.197-2.796-19.72-13.666-47.719
					c-1.453-3.739,0.403-7.952,4.144-9.403c3.738-1.44,7.955,0.399,9.406,4.145c11.545,29.733,14.404,50.16,14.519,51.011
					C3019.974,805.906,3017.357,809.471,3013.557,810.165z"/>
			</g>
			<g>
				<path style="fill:#FFFFFF;" d="M2696.024,788.393l-13.518,69.797h66.356v41.289h-74.467l-19.661,102.729h-43.745l19.661-102.729
					h-60.95l-19.661,102.729h-42.764l18.678-102.729h-61.44V858.19h69.551l14.009-69.797h-64.882v-41.288h72.008l19.663-103.714
					h44.236l-19.661,103.714h61.933l19.661-103.714h42.763l-19.662,103.714h61.933v41.288H2696.024z M2577.32,858.19h61.44
					l14.009-69.797h-61.441L2577.32,858.19z"/>
			</g>
		</g>
		<g>
			
				<linearGradient id="SVGID_00000116933860290339306950000010036296289134598546_" gradientUnits="userSpaceOnUse" x1="1226.6545" y1="2113.4858" x2="1702.2233" y2="2339.217" gradientTransform="matrix(-0.9999 -0.015 -0.015 0.9999 2820.5588 17.0219)">
				<stop  offset="0" style="stop-color:#09005D"/>
				<stop  offset="1" style="stop-color:#1A0F91"/>
			</linearGradient>
			<path style="fill:url(#SVGID_00000116933860290339306950000010036296289134598546_);" d="M1242.391,2084.805
				c0,0,26.285-64.406-72.86-51.421c-99.145,12.986-75.048,50.416-82.885,79.666c-7.837,29.25-49.431,62.398-165.18,107.529
				c-115.749,45.13-81.431,168.167-29.441,209.005c51.991,40.837,80.344,13.694,92.437,84.177
				c12.093,70.483,60.331,127.726,120.517,67.976c60.185-59.749,128.592-130.402,109.462-223.047
				c-19.132-92.645,2.533-75.119,39.88-117.621C1291.667,2198.567,1212.508,2157.428,1242.391,2084.805z"/>
			
				<linearGradient id="SVGID_00000180340083490306876330000006522152600520576165_" gradientUnits="userSpaceOnUse" x1="1513.2152" y1="2170.7256" x2="1334.2421" y2="2390.748" gradientTransform="matrix(-1 0 0 1 2742.2441 0)">
				<stop  offset="0" style="stop-color:#FEBBBA"/>
				<stop  offset="1" style="stop-color:#FF928E"/>
			</linearGradient>
			<path style="fill:url(#SVGID_00000180340083490306876330000006522152600520576165_);" d="M1220.263,2257.264
				c15.741-15.967,31.056,22.409,35.143,32.026c10.322,24.285,21.051,46.082,42.837,62.724
				c13.477,10.295,31.691,16.897,48.743,11.949c61.417-17.817,61.703-67.152,63.085-104.105
				c-1.423-10.482,4.863-20.871,12.479-24.112c8.843-3.764,12.227-12.913,12.227-12.913s6.009,13.323-1.376,19.568
				c-2.581,2.183-3.338,4.763-3.258,7.204c0.862-0.144,1.75-0.276,2.68-0.393c18.462-2.308-0.068,24.117-0.068,24.117
				s17.871,96.729-63.99,135.171c-40.523,19.029-71.602,14.518-92.722,5.102c-10.667-3.726-19.87-10.417-27.74-18.952
				c-3.17-3.164-4.788-5.3-4.788-5.3l-0.005-0.305C1210.84,2347.504,1205.168,2272.576,1220.263,2257.264z"/>
			
				<linearGradient id="SVGID_00000090271266042381960360000005434052283406650793_" gradientUnits="userSpaceOnUse" x1="1890.8108" y1="2099.8059" x2="1645.9794" y2="2400.7917" gradientTransform="matrix(-1 0 0 1 2742.2441 0)">
				<stop  offset="0" style="stop-color:#FEBBBA"/>
				<stop  offset="1" style="stop-color:#FF928E"/>
			</linearGradient>
			<path style="fill:url(#SVGID_00000090271266042381960360000005434052283406650793_);" d="M904.349,2165.603
				c1.569-3,6.008-2.526,6.914,0.733c3.354,12.074,11.472,33.141,28.508,40.622c0.659,0.291,1.421,0.223,2.017-0.178
				c0.598-0.402,0.946-1.081,0.928-1.801c-0.04-1.494-0.488-3.081-1.556-4.713c-2.234-3.416-1.824-7.357-0.602-10.775
				c0.524-1.464,1.884-2.466,3.438-2.53c1.555-0.064,2.992,0.82,3.636,2.238c1.195,2.629,3.027,5.465,5.827,7.786
				c6.374,5.28,9.434,17.029,5.079,26.668c-9.22,35.813-23.027,83.178,30.753,117.78c53.778,34.602,129.513-65.302,129.513-65.302
				l3.386,90.438c0,0-98.995,71.541-166.481,11.336c-67.487-60.205-22.755-147.811-22.755-147.811
				S881.479,2209.328,904.349,2165.603z"/>
			
				<linearGradient id="SVGID_00000076603466568920383600000009229429577385533583_" gradientUnits="userSpaceOnUse" x1="1584.8031" y1="2075.1418" x2="1317.0107" y2="2291.4353">
				<stop  offset="0" style="stop-color:#FF928E"/>
				<stop  offset="1" style="stop-color:#FE7062"/>
			</linearGradient>
			<path style="fill:url(#SVGID_00000076603466568920383600000009229429577385533583_);" d="M1219.582,2251.127
				c-16.087-4.823-62.927-13.727-107.48,27.388c-7.557,6.973-10.645,17.569-7.95,27.491c11.967,44.055,43.54,174.215,15.856,230.533
				c0,0,48.785,53.78,102.008,10.434c0,0,23.88-104.076,55.157-149.766c21.595-31.544-34.432-118.452-48.608-139.448
				C1226.42,2254.581,1223.256,2252.228,1219.582,2251.127z"/>
			
				<linearGradient id="SVGID_00000129921178034285868530000006801567143724397983_" gradientUnits="userSpaceOnUse" x1="-6947.4888" y1="3579.8745" x2="-6934.6128" y2="3488.4551" gradientTransform="matrix(-0.9602 0.2794 0.2794 0.9602 -6458.1841 797.6744)">
				<stop  offset="0" style="stop-color:#FEBBBA"/>
				<stop  offset="1" style="stop-color:#FF928E"/>
			</linearGradient>
			<path style="fill:url(#SVGID_00000129921178034285868530000006801567143724397983_);" d="M1175.164,2163.6
				c0,0-23.791,67.295-25.581,96.984c0,0,26.296,11.957,51.072-8.224c0,0,2.6-67.218,6.356-79.253L1175.164,2163.6z"/>
			
				<linearGradient id="SVGID_00000112597380511053214520000001718707210688087713_" gradientUnits="userSpaceOnUse" x1="-7006.5195" y1="3383.9888" x2="-6886.1265" y2="3522.4089" gradientTransform="matrix(-0.9602 0.2794 0.2794 0.9602 -6458.1841 797.6744)">
				<stop  offset="0" style="stop-color:#FEBBBA"/>
				<stop  offset="1" style="stop-color:#FF928E"/>
			</linearGradient>
			<path style="fill:url(#SVGID_00000112597380511053214520000001718707210688087713_);" d="M1208.211,2071.844
				c0,0,62.228,87.085,25.03,112.38c-37.199,25.295-81.496-36.592-81.496-36.592s-14.439-47.665,0.659-63.834
				C1167.503,2067.628,1208.211,2071.844,1208.211,2071.844z"/>
			
				<linearGradient id="SVGID_00000168803826469909481980000002056599206382196865_" gradientUnits="userSpaceOnUse" x1="1274.6954" y1="1949.5299" x2="1750.2667" y2="2175.2622" gradientTransform="matrix(-1 0 0 1 2742.2441 0)">
				<stop  offset="0" style="stop-color:#09005D"/>
				<stop  offset="1" style="stop-color:#1A0F91"/>
			</linearGradient>
			<path style="fill:url(#SVGID_00000168803826469909481980000002056599206382196865_);" d="M1130.97,2070.993
				c11.777-28.359,48.437-19.96,48.437-19.96s28.588,6.774,32.594,19.709c1.802,5.818-6.223,11.448-16.734,15.932
				c-23.408,9.99-40.421,31.034-45.236,56.025l-1.109,5.752C1148.923,2148.451,1119.194,2099.351,1130.97,2070.993z"/>
			
				<linearGradient id="SVGID_00000088103216369516587840000007643716860859688632_" gradientUnits="userSpaceOnUse" x1="-6976.4395" y1="3357.8257" x2="-6856.0503" y2="3496.241" gradientTransform="matrix(-0.9602 0.2794 0.2794 0.9602 -6458.1841 797.6744)">
				<stop  offset="0" style="stop-color:#FEBBBA"/>
				<stop  offset="1" style="stop-color:#FF928E"/>
			</linearGradient>
			<path style="fill:url(#SVGID_00000088103216369516587840000007643716860859688632_);" d="M1163.808,2141.223
				c0,0-24.221-28.051-33.855-9.763c-9.634,18.286,21.802,32.015,32.684,23.038L1163.808,2141.223z"/>
			
				<linearGradient id="SVGID_00000060008963148352150260000014902756190536229805_" gradientUnits="userSpaceOnUse" x1="6532.1772" y1="3347.4016" x2="6819.4082" y2="2840.3774" gradientTransform="matrix(1 -0.0095 0.0095 1 -5563.6738 56.9446)">
				<stop  offset="0" style="stop-color:#FEBBBA"/>
				<stop  offset="1" style="stop-color:#FF928E"/>
			</linearGradient>
			<path style="fill:url(#SVGID_00000060008963148352150260000014902756190536229805_);" d="M1284.15,2765.493
				c-0.183,4.725,8.112,42.202,12.627,62.192c1.817,8.043,0.551,16.461-3.543,23.618l-156.353,263.149
				c-1.891,3.183-3.268,6.632-4.106,10.238c-2.865,12.349-8.808,42.613-5.706,70.146l8.089,16.799l-34.981-7.943l-7.61-93.941
				l9.903-6.039c8.555-5.216,15.216-13.014,19.032-22.28c14.137-34.342,49.245-121.76,58.296-164.363
				c10.284-48.418,64.052-87.744,64.052-87.744l-9.446-22.333L1284.15,2765.493z"/>
			
				<linearGradient id="SVGID_00000129166096011306489090000013914960216605426060_" gradientUnits="userSpaceOnUse" x1="6594.7925" y1="3168.1396" x2="6678.75" y2="3168.1396" gradientTransform="matrix(1 -0.0095 0.0095 1 -5563.6738 56.9446)">
				<stop  offset="0" style="stop-color:#09005D"/>
				<stop  offset="1" style="stop-color:#1A0F91"/>
			</linearGradient>
			<path style="fill:url(#SVGID_00000129166096011306489090000013914960216605426060_);" d="M1061.301,3171.366
				c0,0,18.89-29.949,21.112-41.607c2.222-11.657,8.41-32.244,20.057-26.047c0,0,5.488,56.631,3.595,78.759
				c-1.891,22.129,25.015,21.417,25.015,21.417s7.416,1.043,12.847,6.472c3.75,3.749,1.068,10.254-4.223,10.595
				c-8.805,0.567-22.791,0.716-37.476-2.122c-5.133-0.992-8.937-5.36-9.248-10.577l-3.876-65.177l-23.829,30.088L1061.301,3171.366z
				"/>
			
				<linearGradient id="SVGID_00000162320379695502184410000014559216378797314973_" gradientUnits="userSpaceOnUse" x1="6801.8188" y1="2990.1812" x2="6372.2549" y2="3127.5417" gradientTransform="matrix(1 -0.0095 0.0095 1 -5563.6738 56.9446)">
				<stop  offset="0" style="stop-color:#FEBBBA"/>
				<stop  offset="1" style="stop-color:#FF928E"/>
			</linearGradient>
			<path style="fill:url(#SVGID_00000162320379695502184410000014559216378797314973_);" d="M1190.746,2807.41
				c0,0-5.514,235.386-6.261,268.816c-0.747,33.431,5.279,107.517,38.793,129.661l-14.583,10.797c0,0-18.225-15.49-36.029-45.301
				c-20.001-33.489-26.049-39.607-26.049-39.607l6.637-13.592c2.906-5.95,3.76-12.682,2.421-19.167
				c-7.231-35.052-31.391-151.639-37.982-176.746c-7.779-29.638-8.333-69.217,18.732-102.346
				C1163.489,2786.794,1190.746,2807.41,1190.746,2807.41z"/>
			
				<linearGradient id="SVGID_00000105390928528802542950000009605778131056084404_" gradientUnits="userSpaceOnUse" x1="6672.6318" y1="3183.3032" x2="6772.7188" y2="3183.3032" gradientTransform="matrix(1 -0.0095 0.0095 1 -5563.6738 56.9446)">
				<stop  offset="0" style="stop-color:#09005D"/>
				<stop  offset="1" style="stop-color:#1A0F91"/>
			</linearGradient>
			<path style="fill:url(#SVGID_00000105390928528802542950000009605778131056084404_);" d="M1159.798,3227.292
				c-1.039,0.01-1.923-0.734-2.07-1.764c-1.116-7.848-5.757-39.308-9.557-47.455c-4.353-9.329-18.568-48.598,0.008-51.931
				c0,0,46.181,67.47,55.045,76.567c8.866,9.096,20.054,3.177,20.054,3.177s8.637,2.552,15.152,10.875
				c3.099,3.962,0.211,9.777-4.819,9.826l-31.106,0.297c-9.033,0.086-17.158-5.402-20.517-13.788
				c-5.475-13.676-14.881-33.735-25.843-42.634l5.696,54.542C1161.968,3226.219,1161.021,3227.281,1159.798,3227.292
				L1159.798,3227.292z"/>
			
				<linearGradient id="SVGID_00000116195997992177074940000001951693387739132604_" gradientUnits="userSpaceOnUse" x1="1082.7415" y1="3019.293" x2="1231.3738" y2="2551.4668">
				<stop  offset="0" style="stop-color:#4F52FF"/>
				<stop  offset="1" style="stop-color:#4042E2"/>
			</linearGradient>
			<path style="fill:url(#SVGID_00000116195997992177074940000001951693387739132604_);" d="M1229.38,2521.594
				c0,0-7.01,22.342,3.759,59.141l66.801,233.273c1.049,3.666-0.929,7.501-4.517,8.789c-19.981,7.172-85.667,27.442-175.333,21.26
				c-4.515-0.311-8.3-3.508-9.282-7.926c-5.907-26.594-26.066-117.33-30.217-135.973c-15.815-71.039-33.474-147.649,44.211-193.973
				C1160.602,2521.52,1193.994,2530.559,1229.38,2521.594z"/>
			<g>
				
					<linearGradient id="SVGID_00000052818091044380906380000005510889311782777019_" gradientUnits="userSpaceOnUse" x1="1336.6777" y1="2245.24" x2="1343.386" y2="2404.563" gradientTransform="matrix(-1 0 0 1 2742.2441 0)">
					<stop  offset="0" style="stop-color:#09005D"/>
					<stop  offset="1" style="stop-color:#1A0F91"/>
				</linearGradient>
				<path style="fill:url(#SVGID_00000052818091044380906380000005510889311782777019_);" d="M1365.438,2312.655
					c-2.163-4.76-1.623-10.998-1.135-15.93c1.13-11.431,1.037-22.827,1.222-34.31c0.48-29.752,0.217-59.579,2.575-89.259
					c0.509-6.406-0.176-12.831,0.324-19.21c1.268-16.19,10.763-20.968,26.56-24.346c13.361-2.857,27.928-6.791,41.733-3.857
					c5.438,1.156,10.669,4.13,11.349,9.805c2.742,22.915,2.059,173.074-25.599,177.205c-9.339,1.396-18.609,3.031-27.894,4.704
					c-6.602,1.189-15.428,3.695-22.076,1.458C1368.869,2317.694,1366.696,2315.424,1365.438,2312.655z"/>
				
					<linearGradient id="SVGID_00000115488774616700762470000003104131206398476173_" gradientUnits="userSpaceOnUse" x1="1409.0469" y1="2119.3547" x2="1270.0442" y2="2290.239" gradientTransform="matrix(-1 0 0 1 2742.2441 0)">
					<stop  offset="0" style="stop-color:#09005D"/>
					<stop  offset="1" style="stop-color:#1A0F91"/>
				</linearGradient>
				<path style="fill:url(#SVGID_00000115488774616700762470000003104131206398476173_);" d="M1376.409,2312.655
					c-2.162-4.76-1.623-10.998-1.134-15.93c1.13-11.431,1.037-22.827,1.222-34.31c0.481-29.752,0.218-59.579,2.575-89.259
					c0.509-6.406-0.176-12.831,0.324-19.21c1.269-16.19,10.764-20.968,26.56-24.346c13.361-2.857,27.928-6.791,41.734-3.857
					c5.437,1.156,10.669,4.13,11.348,9.805c2.743,22.915,2.058,173.074-25.599,177.205c-9.34,1.396-18.609,3.031-27.894,4.704
					c-6.601,1.189-15.427,3.695-22.076,1.458C1379.839,2317.694,1377.667,2315.424,1376.409,2312.655z"/>
			</g>
			
				<linearGradient id="SVGID_00000103261613703686381900000012823277368185363602_" gradientUnits="userSpaceOnUse" x1="1321.7656" y1="2196.3945" x2="1267.7728" y2="2262.7712" gradientTransform="matrix(-1 0 0 1 2742.2441 0)">
				<stop  offset="0" style="stop-color:#FEBBBA"/>
				<stop  offset="1" style="stop-color:#FF928E"/>
			</linearGradient>
			<path style="fill:url(#SVGID_00000103261613703686381900000012823277368185363602_);" d="M1456.165,2270.61
				c0,0,5.019-3.41,9.144-23.782c4.125-20.372,8.218-32.711,0-42.163c-8.219-9.451-20.957-9.862-20.957,0
				c0,9.862,2.135,28.029,0.657,42.163C1443.53,2260.963,1447.022,2294.392,1456.165,2270.61z"/>
			<path style="fill:#91B3FA;" d="M1140.26,2064.103c-9.498,2.018-18.655,6.522-25.682,13.563
				c-3.438,3.588-6.128,7.907-7.881,12.592l-1.166,3.574l-0.668,3.696c-0.473,2.489-0.7,4.788-1.1,7.182
				c-3.477,18.873-11.767,36.891-24.09,51.59c-6.074,7.412-13.149,14.008-20.991,19.532c-7.805,5.61-16.507,9.728-25.287,13.926
				c-8.768,4.156-17.665,8.044-26.691,11.613c-8.997,3.646-18.142,6.954-27.513,9.57c19.076-4.051,37.374-11.151,55.249-18.882
				c8.92-3.823,17.853-8.142,25.958-13.779c8.116-5.595,15.479-12.305,21.803-19.886c12.463-15.296,21.012-33.8,24.045-53.284
				c0.331-2.415,0.512-4.972,0.887-7.271l0.518-3.503l0.996-3.392c1.512-4.463,3.937-8.62,7.103-12.185
				C1122.125,2071.614,1130.967,2066.822,1140.26,2064.103z"/>
			<path style="fill:#91B3FA;" d="M888.55,2268.194c-7.915,11.631-13.495,24.819-17.103,38.5
				c-3.572,13.708-4.602,28.135-2.868,42.291c2.079,14.105,7.096,27.784,14.839,39.704c2.054,2.896,3.964,5.888,6.278,8.577
				c1.127,1.364,2.192,2.78,3.367,4.1l3.613,3.876c2.355,2.636,5.14,4.839,7.679,7.268c2.646,2.319,5.473,4.429,8.22,6.604
				c-10.451-9.366-19.803-19.908-27.012-31.763c-3.384-6.04-6.662-12.159-8.89-18.714c-2.278-6.52-3.912-13.254-4.841-20.093
				c-1.943-13.691-0.917-27.704,2.062-41.261c1.469-6.795,3.501-13.476,5.963-20.003
				C882.25,2280.719,885.157,2274.339,888.55,2268.194z"/>
		</g>
		<g>
			<g>
				
					<linearGradient id="SVGID_00000072986538760677568760000012469747260196495023_" gradientUnits="userSpaceOnUse" x1="121.8921" y1="2243.4082" x2="1445.3417" y2="1573.9578">
					<stop  offset="0" style="stop-color:#FEBBBA"/>
					<stop  offset="1" style="stop-color:#FF928E"/>
				</linearGradient>
				<path style="fill:url(#SVGID_00000072986538760677568760000012469747260196495023_);" d="M520.942,1643.162v224.42
					c0,18.288,11.143,33.113,24.891,33.113h817.568c11.421,0,21.377,10.342,24.147,25.082l14.682,78.135
					c1.947,10.361,12.768,11.219,15.626,1.238l18.904-66.015c3.677-12.84,12.932-21.325,23.26-21.325h35.139
					c13.747,0,24.892-14.825,24.892-33.114v-230.692c0-18.176-11.015-32.956-24.678-33.111l-949.328-10.841
					C532.216,1609.892,520.942,1624.762,520.942,1643.162z"/>
				<g>
					
						<linearGradient id="SVGID_00000084500372903184176890000008574563849959825582_" gradientUnits="userSpaceOnUse" x1="647.4632" y1="962.8251" x2="647.4632" y2="1276.9517">
						<stop  offset="0" style="stop-color:#FF928E"/>
						<stop  offset="1" style="stop-color:#FE7062"/>
					</linearGradient>
					
						<ellipse style="fill:url(#SVGID_00000084500372903184176890000008574563849959825582_);" cx="647.463" cy="1756.784" rx="100.279" ry="102.917"/>
					<g>
						<path style="fill:#FFFFFF;" d="M683.793,1715.068c0,18.488-14.987,38.447-33.475,38.447
							c-18.488,0-33.475-19.959-33.475-38.447c0-18.487,14.987-31.603,33.475-31.603
							C668.806,1683.465,683.793,1696.581,683.793,1715.068z"/>
						<path style="fill:#FFFFFF;" d="M608.776,1824.692h81.718c8.602,0,16.218-5.559,18.84-13.751l4.396-13.745
							c3.221-10.062-2.014-20.958-11.937-24.586c-33.257-12.158-67.644-10.6-102.871,1.122c-9.869,3.285-15.344,13.84-12.621,23.878
							l3.386,12.481C592.025,1818.71,599.847,1824.692,608.776,1824.692z"/>
					</g>
				</g>
				<path style="opacity:0.83;fill:#FFFFFF;" d="M1160.611,1689.65c0,13.715-11.118,24.833-24.833,24.833H831.821
					c-13.715,0-24.834-11.118-24.834-24.833v-1.832c0-13.715,11.118-24.833,24.834-24.833h303.956
					c13.715,0,24.833,11.118,24.833,24.833V1689.65z"/>
				<path style="opacity:0.83;fill:#FFFFFF;" d="M1479.069,1859.701H822.172c-2.593,0-4.695-2.102-4.695-4.695v-97.865
					c0-2.593,2.102-4.695,4.695-4.695h656.897c2.593,0,4.695,2.102,4.695,4.695v97.865
					C1483.764,1857.599,1481.662,1859.701,1479.069,1859.701z"/>
			</g>
			<g>
				<g>
					<path style="fill:#FFFFFF;" d="M1254.367,1683.12l-4.443,22.888h19.053v8.683h-20.667l-5.654,28.946h-9.224l5.655-28.946
						h-20.397l-5.52,28.946h-9.156l5.387-28.946h-17.637v-8.683h19.321l4.574-22.888h-18.645v-8.548h20.126l5.521-29.35h9.357
						l-5.519,29.35h20.53l5.654-29.35h9.021l-5.655,29.35h17.772v8.548H1254.367z M1220.307,1706.008h20.397l4.442-22.888h-20.397
						L1220.307,1706.008z"/>
				</g>
				<path style="fill:#FFFFFF;" d="M1455.87,1692.167c0,8.532-6.917,15.449-15.449,15.449h-133.896
					c-8.532,0-15.45-6.917-15.45-15.449l0,0c0-8.533,6.917-15.45,15.45-15.45h133.896
					C1448.953,1676.718,1455.87,1683.635,1455.87,1692.167L1455.87,1692.167z"/>
			</g>
		</g>
		<g>
			<g>
				
					<linearGradient id="SVGID_00000128461254400313924940000009425312345377369229_" gradientUnits="userSpaceOnUse" x1="2571.8511" y1="2539.3127" x2="2576.022" y2="2465.6272">
					<stop  offset="0" style="stop-color:#09005D"/>
					<stop  offset="1" style="stop-color:#1A0F91"/>
				</linearGradient>
				<path style="fill:url(#SVGID_00000128461254400313924940000009425312345377369229_);" d="M2517.857,2449.747
					c-0.58,1.098-37.097,27.97-37.097,27.97s8.064,57.692,40.811,80.474c36.004,25.047,86.85-20.631,86.85-20.631
					s40.465,9.619,61.984-74.614c4.937-19.325-23.561-20.958-57.956-17.399C2568.095,2450.137,2517.857,2449.747,2517.857,2449.747z
					"/>
				
					<linearGradient id="SVGID_00000174560840469363154130000015476127707377153697_" gradientUnits="userSpaceOnUse" x1="2587.9944" y1="2172.1968" x2="2577.6951" y2="2584.1646">
					<stop  offset="0" style="stop-color:#FF928E"/>
					<stop  offset="1" style="stop-color:#FE7062"/>
				</linearGradient>
				<path style="fill:url(#SVGID_00000174560840469363154130000015476127707377153697_);" d="M2449.6,2646.575
					c14.286-9.822,30.081-17.228,46.825-21.784c6.29-1.712,40.25,8.158,61.243,7.676c28.817-0.662,58.15-13.777,81.904-7.857
					c23.595,5.88,42.906,13.56,54.057,21.491c33.376,23.738,52.972,68.002,64.914,111.846
					c-22.612,23.212-51.069,33.528-51.069,33.528l-5.258,213.118l-126.02,64.477l-143.837-72.215l5.153-208.267
					c0,0-45.676-21.271-49.027-29.008C2385.133,2751.843,2409.302,2674.283,2449.6,2646.575z"/>
				
					<linearGradient id="SVGID_00000164487281193656611740000000771617516462353823_" gradientUnits="userSpaceOnUse" x1="2359.3394" y1="2713.0247" x2="2598.8132" y2="3291.4944">
					<stop  offset="0" style="stop-color:#FEBBBA"/>
					<stop  offset="1" style="stop-color:#FF928E"/>
				</linearGradient>
				<path style="fill:url(#SVGID_00000164487281193656611740000000771617516462353823_);" d="M2390.613,2758.649
					c0,0-61.208,169.692,78.368,239.435c28.981-3.85,17.834-51.979,17.834-51.979s-60.646-13.421-42.433-154.977
					C2427.614,2777.331,2390.613,2758.649,2390.613,2758.649z"/>
				
					<linearGradient id="SVGID_00000160153210698501370260000001682370553066121914_" gradientUnits="userSpaceOnUse" x1="-6950.9443" y1="2711.7813" x2="-6711.4707" y2="3290.251" gradientTransform="matrix(-1 0 0 1 -4167.0742 0)">
					<stop  offset="0" style="stop-color:#FEBBBA"/>
					<stop  offset="1" style="stop-color:#FF928E"/>
				</linearGradient>
				<path style="fill:url(#SVGID_00000160153210698501370260000001682370553066121914_);" d="M2755.6,2758.649
					c0,0,42.117,177.135-78.368,239.435c-28.981-3.85-17.835-51.979-17.835-51.979s48.877-24.072,42.433-154.977
					C2718.599,2777.331,2755.6,2758.649,2755.6,2758.649z"/>
				
					<linearGradient id="SVGID_00000116224240511018915670000007929530187606306709_" gradientUnits="userSpaceOnUse" x1="2572.0598" y1="2787.6584" x2="2559.5994" y2="3292.3157">
					<stop  offset="0" style="stop-color:#09005D"/>
					<stop  offset="1" style="stop-color:#1A0F91"/>
				</linearGradient>
				<path style="fill:url(#SVGID_00000116224240511018915670000007929530187606306709_);" d="M2702.993,3010.002h-268.237
					c-2.23,0-4.055-1.825-4.055-4.055V2827.43c0-2.23,1.825-4.055,4.055-4.055h268.237c2.23,0,4.055,1.825,4.055,4.055v178.518
					C2707.048,3008.178,2705.223,3010.002,2702.993,3010.002z"/>
				<g>
					
						<linearGradient id="SVGID_00000067207289571327016220000007031004218878049175_" gradientUnits="userSpaceOnUse" x1="2926.436" y1="2696.8608" x2="2748.5652" y2="3171.9966">
						<stop  offset="0" style="stop-color:#4F52FF"/>
						<stop  offset="1" style="stop-color:#4042E2"/>
					</linearGradient>
					<path style="fill:url(#SVGID_00000067207289571327016220000007031004218878049175_);" d="M2828.257,3065.331
						c-31.626-7.259-104.72-3.356-104.72-3.356l-2.973,8.051l-4.923,40.019c0,0,69.61,12.547,103.922,12.517
						c3.501-0.003,6.703-0.529,9.628-1.439c1.046-0.938,2.069-1.912,3.035-2.968
						C2846.783,3102.255,2842.579,3078.9,2828.257,3065.331z"/>
					
						<linearGradient id="SVGID_00000075143879705323674820000014684148731921832380_" gradientUnits="userSpaceOnUse" x1="2802.1614" y1="2855.1873" x2="2664.0254" y2="3229.3433">
						<stop  offset="0" style="stop-color:#FEBBBA"/>
						<stop  offset="1" style="stop-color:#FF928E"/>
					</linearGradient>
					<path style="fill:url(#SVGID_00000075143879705323674820000014684148731921832380_);" d="M2702.535,3059.721l12.377,0.528
						c6.65,0.284,12.917,3.524,17.388,8.991c4.472,5.466,6.771,12.699,6.38,20.066c-0.312,5.875-2.723,11.369-6.698,15.267
						c-3.975,3.897-9.188,5.877-14.483,5.5l-18.938-1.347L2702.535,3059.721z"/>
				</g>
				<g>
					
						<linearGradient id="SVGID_00000031917604409823619940000011321486141026209690_" gradientUnits="userSpaceOnUse" x1="-3250.1721" y1="-4197.6738" x2="-3554.7476" y2="-3644.5659" gradientTransform="matrix(-0.9998 -0.02 -0.02 0.9998 -4813.9961 -50.8396)">
						<stop  offset="0" style="stop-color:#4F52FF"/>
						<stop  offset="1" style="stop-color:#4042E2"/>
					</linearGradient>
					<path style="fill:url(#SVGID_00000031917604409823619940000011321486141026209690_);" d="M2286.346,3061.481
						c31.795-6.287,104.764-0.142,104.764-0.142l2.771,8.139l3.923,40.155c0,0-69.896,10.406-104.195,9.323
						c-3.499-0.111-6.687-0.734-9.588-1.734c-1.023-0.97-2.02-1.975-2.96-3.061
						C2266.906,3097.823,2271.691,3074.606,2286.346,3061.481z"/>
					
						<linearGradient id="SVGID_00000131344091696242940520000000925873135680391832_" gradientUnits="userSpaceOnUse" x1="2525.4026" y1="2742.4351" x2="2387.1941" y2="3116.7878">
						<stop  offset="0" style="stop-color:#FEBBBA"/>
						<stop  offset="1" style="stop-color:#FF928E"/>
					</linearGradient>
					<path style="fill:url(#SVGID_00000131344091696242940520000000925873135680391832_);" d="M2412.161,3059.731l-12.386,0.148
						c-6.655,0.08-13,3.126-17.606,8.454c-4.606,5.327-7.084,12.486-6.877,19.863c0.166,5.882,2.438,11.448,6.315,15.466
						c3.876,4.018,9.037,6.157,14.34,5.942l18.964-0.766L2412.161,3059.731z"/>
				</g>
				
					<linearGradient id="SVGID_00000008107823963451878490000010355193321848731532_" gradientUnits="userSpaceOnUse" x1="2595.2744" y1="2600.8286" x2="2626.1736" y2="3074.6162">
					<stop  offset="0" style="stop-color:#4F52FF"/>
					<stop  offset="0.246" style="stop-color:#4B4EF8"/>
					<stop  offset="1" style="stop-color:#4042E2"/>
				</linearGradient>
				<path style="fill:url(#SVGID_00000008107823963451878490000010355193321848731532_);" d="M2837.102,2939.875
					c-14.342-33.009-49.421-38.367-79.277-22.933c-0.52,0.683-189.603,97.59-356.351,140.061
					c4.774,15.304,7.228,31.588,7.764,47.594c0.096,3.566,0.037,7.083-0.172,10.554c127.872-6.568,266.65-49.213,385.903-86.69
					C2831.949,3016.534,2852.998,2976.46,2837.102,2939.875z"/>
				
					<linearGradient id="SVGID_00000008111225487675592170000005119313448736297379_" gradientUnits="userSpaceOnUse" x1="2506.0652" y1="3004.2969" x2="2499.1985" y2="2616.3411">
					<stop  offset="0" style="stop-color:#4F52FF"/>
					<stop  offset="1" style="stop-color:#4042E2"/>
				</linearGradient>
				<path style="fill:url(#SVGID_00000008111225487675592170000005119313448736297379_);" d="M2703.443,3107.104
					c-0.5-18.449,3.087-35.624,10.761-51.524c0.219-0.728,0.482-1.427,0.714-2.147c-9.522-2.949-21.823-6.945-37.983-12.427
					c-118.407-40.522-208.739-81.438-294.951-128.539c-33.492-18.298-71.572-6.035-82.293,33.594
					c-9.571,35.377,11.447,65.581,43.345,76.195c95.432,31.757,45.744,22.936,76.911,32.966
					c83.704,25.884,187.863,49.459,283.695,55.897C2703.571,3109.781,2703.488,3108.44,2703.443,3107.104z"/>
				
					<linearGradient id="SVGID_00000149352924867534348600000007693196714063263376_" gradientUnits="userSpaceOnUse" x1="2569.563" y1="2760.7871" x2="2566.3767" y2="2483.5554">
					<stop  offset="0" style="stop-color:#FEBBBA"/>
					<stop  offset="1" style="stop-color:#FF928E"/>
				</linearGradient>
				<path style="fill:url(#SVGID_00000149352924867534348600000007693196714063263376_);" d="M2496.426,2624.791
					c0,0,12.735,55.185,74.561,54.039c62.972-1.146,68.586-54.22,68.586-54.22l-41.135-8.802l-3.438-45.834l-61.876,4.584
					l-1.146,43.542L2496.426,2624.791z"/>
				
					<linearGradient id="SVGID_00000107569916714959745580000013739395715457699241_" gradientUnits="userSpaceOnUse" x1="2763.3806" y1="1829.0786" x2="2773.3064" y2="1587.8384" gradientTransform="matrix(0.987 0.1608 -0.1608 0.987 126.9837 357.2448)">
					<stop  offset="0" style="stop-color:#FEBBBA"/>
					<stop  offset="1" style="stop-color:#FF928E"/>
				</linearGradient>
				<path style="fill:url(#SVGID_00000107569916714959745580000013739395715457699241_);" d="M2541.811,2440.11
					c0,0-70.91,137.356,13.205,170.681c59.332,23.505,96.531-91.215,85.436-122.287c-17.156-48.043-28.454-42.342-28.454-42.342
					L2541.811,2440.11z"/>
				
					<linearGradient id="SVGID_00000098217545977514174000000011932475873744804266_" gradientUnits="userSpaceOnUse" x1="2613.0603" y1="2310.8491" x2="2584.9067" y2="2422.4202">
					<stop  offset="0" style="stop-color:#09005D"/>
					<stop  offset="1" style="stop-color:#1A0F91"/>
				</linearGradient>
				<path style="fill:url(#SVGID_00000098217545977514174000000011932475873744804266_);" d="M2657.515,2427.612
					c35.031,9.628,5.092,85.602-47.648,67.636c-52.741-17.966-73.466-17.704-81.684-3.221c-8.219,14.482-9.985,65.912-27.817,40.492
					c-19.551-27.87-30.452-83.808-6.481-101.841c21.423-16.116,26.422-41.103,52.116-40.237
					c34.106,1.149,60.481-13.969,75.876-3.066C2639.557,2399.896,2631.739,2420.527,2657.515,2427.612z"/>
				
					<linearGradient id="SVGID_00000073711332940608992520000015672049467854240156_" gradientUnits="userSpaceOnUse" x1="2152.1702" y1="3168.7969" x2="2167.7249" y2="2790.751" gradientTransform="matrix(0.9911 -0.1329 0.1329 0.9911 -26.0254 -216.2621)">
					<stop  offset="0" style="stop-color:#FEBBBA"/>
					<stop  offset="1" style="stop-color:#FF928E"/>
				</linearGradient>
				<path style="fill:url(#SVGID_00000073711332940608992520000015672049467854240156_);" d="M2524.938,2503.838
					c0,0-15.123-16.272-17.544,3.34c-2.421,19.612,5.351,44.87,14.456,31.025
					C2530.956,2524.358,2524.938,2503.838,2524.938,2503.838z"/>
			</g>
			
				<linearGradient id="SVGID_00000181780391556190661090000005255436856922735260_" gradientUnits="userSpaceOnUse" x1="2570.6533" y1="2749.2102" x2="2562.6057" y2="3134.334">
				<stop  offset="0" style="stop-color:#4F52FF"/>
				<stop  offset="1" style="stop-color:#4042E2"/>
			</linearGradient>
			<path style="fill:url(#SVGID_00000181780391556190661090000005255436856922735260_);" d="M2585.174,2873.916
				c1.465,9.901-3.839,18.888-13.741,20.354s-19.116-5.374-20.581-15.275c-1.465-9.901,3.067-19.735,12.968-21.201
				C2573.722,2856.329,2583.709,2864.014,2585.174,2873.916z"/>
		</g>
		<g>
			<g>
				
					<linearGradient id="SVGID_00000091001981694594645150000001764621780487588495_" gradientUnits="userSpaceOnUse" x1="3478.5566" y1="835.8853" x2="2659.8589" y2="2246.6746">
					<stop  offset="0" style="stop-color:#FEBBBA"/>
					<stop  offset="1" style="stop-color:#FF928E"/>
				</linearGradient>
				<path style="fill:url(#SVGID_00000091001981694594645150000001764621780487588495_);" d="M3243.454,1988.66v225.759
					c0,18.396-11.21,33.31-25.04,33.31h-822.447c-11.489,0-21.505,10.404-24.292,25.232l-14.77,78.601
					c-1.959,10.423-12.844,11.287-15.719,1.246l-19.017-66.409c-3.699-12.917-13.009-21.453-23.399-21.453h-35.35
					c-13.829,0-25.04-14.914-25.04-33.312v-232.068c0-18.285,11.081-33.153,24.825-33.309l954.993-10.906
					C3232.112,1955.192,3243.454,1970.151,3243.454,1988.66z"/>
				<g>
					
						<linearGradient id="SVGID_00000040544713571613252490000013617186981067333002_" gradientUnits="userSpaceOnUse" x1="2551.7083" y1="1397.9296" x2="2453.866" y2="1768.701">
						<stop  offset="0" style="stop-color:#FF928E"/>
						<stop  offset="1" style="stop-color:#FE7062"/>
					</linearGradient>
					<path style="fill:url(#SVGID_00000040544713571613252490000013617186981067333002_);" d="M2264.782,2102.96
						c0,57.178,45.165,103.531,100.877,103.531c55.712,0,100.877-46.353,100.877-103.531c0-57.18-45.165-103.532-100.877-103.532
						C2309.946,1999.428,2264.782,2045.78,2264.782,2102.96z"/>
					<g>
						<path style="fill:#FFFFFF;" d="M2402.206,2060.995c0,18.598-15.077,38.676-33.675,38.676
							c-18.599,0-33.675-20.078-33.675-38.676c0-18.597,15.076-31.791,33.675-31.791
							C2387.129,2029.204,2402.206,2042.398,2402.206,2060.995z"/>
						<path style="fill:#FFFFFF;" d="M2326.74,2171.274h82.205c8.654,0,16.315-5.592,18.952-13.834l4.423-13.826
							c3.24-10.122-2.026-21.084-12.008-24.733c-33.454-12.231-68.048-10.663-103.484,1.128
							c-9.928,3.305-15.436,13.923-12.697,24.021l3.406,12.556C2309.889,2165.256,2317.758,2171.274,2326.74,2171.274z"/>
					</g>
				</g>
				<path style="opacity:0.6;fill:#FFFFFF;" d="M2884.096,2032.825c0,13.797-11.185,24.982-24.982,24.982h-307.093
					c-13.797,0-24.982-11.185-24.982-24.982v-1.535c0-13.797,11.185-24.982,24.982-24.982h307.093
					c13.797,0,24.982,11.185,24.982,24.982V2032.825z"/>
				<path style="opacity:0.6;fill:#FFFFFF;" d="M3199.79,2214.538h-665.308c-4.194,0-7.594-3.4-7.594-7.594v-105.62
					c0-4.194,3.4-7.594,7.594-7.594h665.308c4.194,0,7.594,3.4,7.594,7.594v105.62
					C3207.383,2211.138,3203.983,2214.538,3199.79,2214.538z"/>
			</g>
			<g>
				<g>
					<path style="fill:#FFFFFF;" d="M2993.778,2019.103l-4.285,22.079h18.38v8.377h-19.937l-5.454,27.925h-8.899l5.456-27.925
						h-19.677l-5.325,27.925h-8.833l5.196-27.925h-17.015v-8.377h18.639l4.414-22.079h-17.988v-8.248h19.417l5.326-28.314h9.027
						l-5.325,28.314h19.806l5.454-28.314h8.702l-5.455,28.314h17.145v8.248H2993.778z M2960.919,2041.181h19.678l4.286-22.079
						h-19.678L2960.919,2041.181z"/>
				</g>
				<path style="opacity:0.6;fill:#FFFFFF;" d="M3182.788,2032.058c0,8.532-6.917,15.45-15.45,15.45h-133.896
					c-8.532,0-15.449-6.917-15.449-15.45l0,0c0-8.533,6.917-15.45,15.449-15.45h133.896
					C3175.871,2016.608,3182.788,2023.525,3182.788,2032.058L3182.788,2032.058z"/>
			</g>
		</g>
	</g>
</g>
</svg>
